<?xml version="1.0" encoding="UTF-8" standalone="no"?>
<!-- Created with Inkscape (http://www.inkscape.org/) -->

<svg
   width="488.70547mm"
   height="110.19006mm"
   viewBox="0 0 488.70547 110.19006"
   version="1.1"
   id="svg1"
   xml:space="preserve"
   xmlns:inkscape="http://www.inkscape.org/namespaces/inkscape"
   xmlns:sodipodi="http://sodipodi.sourceforge.net/DTD/sodipodi-0.dtd"
   xmlns="http://www.w3.org/2000/svg"
   xmlns:svg="http://www.w3.org/2000/svg"><sodipodi:namedview
     id="namedview1"
     pagecolor="#505050"
     bordercolor="#eeeeee"
     borderopacity="1"
     inkscape:showpageshadow="0"
     inkscape:pageopacity="0"
     inkscape:pagecheckerboard="0"
     inkscape:deskcolor="#505050"
     inkscape:document-units="mm"><inkscape:page
       x="0"
       y="0"
       width="488.70547"
       height="110.19006"
       id="page2"
       margin="0"
       bleed="0" /></sodipodi:namedview><defs
     id="defs1" /><g
     inkscape:label="Capa 1"
     inkscape:groupmode="layer"
     id="layer1"
     transform="translate(146.603,-87.78402)"><path
       style="fill:#000000"
       d="M -146.603,142.87903 V 87.784014 H 97.749758 342.10251 v 55.095016 55.09504 H 97.749758 -146.603 Z m 180.442641,44.72844 c 0.319088,-0.65125 0.58016,-2.27463 0.58016,-3.60751 0,-2.87985 1.018386,-3.57247 3.331587,-2.26587 1.632959,0.92237 3.128614,0.70255 6.349477,-0.93321 1.89284,-0.96131 2.351187,-2.61001 2.33477,-8.3983 -0.01178,-4.15294 -0.129157,-4.57901 -1.748877,-6.34822 -1.873015,-2.04588 -2.239807,-2.10344 -10.547178,-1.65511 l -3.923095,0.21171 -0.153013,11.24539 c -0.105801,7.77566 0.04506,11.50608 0.488955,12.0903 0.922717,1.21441 2.61138,1.04018 3.287214,-0.33918 z m 3.942813,-9.09422 c -2.163594,-0.73186 -3.362653,-2.76449 -3.362653,-5.70031 0,-2.41426 0.251438,-3.12573 1.476686,-4.17846 0.812177,-0.69782 1.913061,-1.26877 2.446409,-1.26877 0.533348,0 1.634232,0.57095 2.446409,1.26877 1.221457,1.04947 1.476685,1.76657 1.476685,4.14896 0,4.13689 -1.923947,6.59563 -4.483536,5.72981 z M 1.9141596,181.5052 c 3.1554022,-1.37162 4.6715342,-4.11155 4.2672656,-7.71173 -0.4425778,-3.94135 -4.5673336,-7.02549 -9.4106786,-7.03651 -0.95102,-0.002 -1.925918,-0.59411 -2.6621,-1.61639 -1.40387,-1.94945 -1.438832,-2.54721 -0.234036,-4.00136 1.30735,-1.57794 4.140524,-1.40114 6.58512403,0.41092 2.45412597,1.81912 4.82804877,2.04646 4.79430047,0.45912 -0.012527,-0.58921 -0.7773528,-2.03545 -1.6996125,-3.21387 l -1.676836,-2.14259 -4.990637,0.002 c -4.755591,0.002 -5.071473,0.0864 -6.7070189,1.79799 -1.4926697,1.56205 -1.7163817,2.21958 -1.7163817,5.04471 0,3.1058 0.102202,3.32942 2.3258566,5.08889 1.368888,1.08314 3.025528,1.84034 4.02637,1.84034 2.616759,0 6.480756,2.29273 6.893846,4.09052 0.434005,1.8888 -0.99792997,3.57556 -3.522279,4.14908 -1.446907,0.32874 -2.10389,0.0797 -3.642873,-1.38082 -3.646282,-3.46041 -6.0809206,-3.89458 -6.0809206,-1.08441 0,2.67792 5.2587196,6.43939 8.9670736,6.414 1.078851,-0.007 3.09644303,-0.50676 4.483537,-1.10972 z m 15.5657524,0.23547 c 2.126668,-0.80917 2.622623,-0.80768 4.421343,0.0132 3.294836,1.50373 3.551473,0.85533 3.551473,-8.97285 0,-9.27529 -0.260731,-9.99187 -3.118171,-8.56977 -1.271449,0.63278 -1.365366,0.99758 -1.365366,5.30356 0,6.12919 -1.020365,8.86988 -3.302276,8.86988 -2.697203,0 -3.423029,-1.78533 -3.423029,-8.41968 0,-4.71112 -0.158872,-5.76518 -0.91684,-6.08288 -1.78829,-0.74957 -2.729062,0.65822 -2.679331,4.0094 0.191514,12.90531 0.06779,12.0935 2.054955,13.48357 2.172509,1.51972 1.81559,1.49241 4.777242,0.36554 z m 45.684873,-0.37735 c 2.569664,-1.42291 3.178525,-2.12924 3.191633,-3.70256 0.01548,-1.85835 -2.185974,-2.00318 -3.857667,-0.25378 -2.557405,2.67628 -6.221708,1.64223 -6.221708,-1.75575 0,-1.34996 0.254724,-1.44372 5.047865,-1.8581 2.776325,-0.24002 5.184448,-0.67779 5.351383,-0.97282 0.590357,-1.04338 -0.469198,-4.95347 -1.816066,-6.70187 -1.575698,-2.04543 -4.095747,-2.74898 -7.72015,-2.15531 -2.075733,0.34001 -2.777431,0.83196 -4.199575,2.94425 -1.443275,2.14368 -1.707436,3.08947 -1.707436,6.11322 0,4.31965 1.391528,6.80137 4.763758,8.49591 2.916335,1.46546 4.298151,1.43593 7.167963,-0.15319 z M 57.257816,171.2289 c -1.185093,-0.33828 -1.287914,-2.21051 -0.17672,-3.21783 1.137361,-1.03104 4.290136,-0.54918 5.024069,0.76787 1.099512,1.97309 -1.649841,3.36268 -4.847349,2.44996 z m 16.990218,10.80728 c 0.925278,-0.54089 1.086634,-1.32537 1.101751,-5.35646 0.01521,-4.05549 0.201811,-4.95101 1.320736,-6.33829 0.716664,-0.88855 2.112829,-1.80982 3.10259,-2.04727 1.981193,-0.4753 2.76047,-1.80348 1.916064,-3.26569 -0.419249,-0.72599 -1.647789,-0.95599 -5.273283,-0.98724 l -4.726692,-0.0407 -0.156337,8.4854 c -0.105664,5.73507 0.05282,8.76069 0.488955,9.3347 0.772725,1.01701 0.843538,1.02387 2.226216,0.21558 z m 15.543446,-0.10089 c 0.457593,-0.49983 0.67253,-3.41358 0.67253,-9.11701 0,-8.86738 -0.18236,-9.45964 -2.609222,-8.47405 -1.141221,0.46346 -1.211865,0.90425 -1.275818,7.96047 -0.05265,5.80947 0.125325,7.79162 0.800705,8.91751 0.979403,1.63272 1.444092,1.77011 2.411805,0.71308 z m 18.25778,-0.51962 c 5.03294,-2.43178 6.40423,-9.6004 2.77371,-14.50001 -2.01265,-2.71621 -3.90643,-3.3907 -8.27027,-2.94554 -2.8665,0.29242 -3.537645,0.6123 -4.881095,2.32644 -1.397809,1.7835 -1.559957,2.46019 -1.580397,6.59549 -0.02677,5.41558 0.685482,6.90532 4.114682,8.60631 2.97759,1.47696 4.65196,1.45931 7.84337,-0.0827 z m -6.6538,-4.43584 c -2.245492,-2.45274 -2.452682,-4.14058 -0.85878,-6.99598 2.06877,-3.70611 5.39019,-3.16262 7.55931,1.23695 l 1.06997,2.17017 -1.51274,2.49688 c -0.832,1.37328 -1.74073,2.49687 -2.01939,2.49687 -0.27866,0 -0.9043,0.16668 -1.39032,0.37039 -0.56334,0.23613 -1.59575,-0.4074 -2.84805,-1.77528 z m 52.60779,4.48199 c 0.31643,-0.34563 1.02348,-0.62843 1.57121,-0.62843 0.54773,0 1.43698,-0.75756 1.97612,-1.68346 0.53913,-0.9259 1.30154,-1.90375 1.69424,-2.173 0.93829,-0.64332 0.91796,-2.83032 -0.03,-3.22766 -1.13558,-0.47598 -3.28677,0.62143 -5.35512,2.73189 -2.13416,2.1776 -5.12079,2.56183 -7.25013,0.93273 -2.00624,-1.53493 -4.02444,-5.50558 -4.02444,-7.91781 0,-3.96457 2.7024,-8.31188 5.63857,-9.07068 1.95575,-0.50543 5.43638,0.62585 6.10137,1.98307 0.83653,1.70734 3.30499,3.23341 4.53843,2.8058 1.70634,-0.59155 1.30836,-2.20898 -1.35761,-5.51741 l -2.45294,-3.04407 -5.5472,0.0429 c -5.20168,0.0403 -5.638,0.14213 -7.00503,1.63533 -3.4756,3.79636 -3.83868,4.84059 -3.83868,11.03996 v 5.7954 l 2.11931,2.60857 c 2.73952,3.37197 6.21952,4.99325 9.88728,4.60634 1.51761,-0.16009 3.01819,-0.57388 3.33463,-0.91952 z m 22.51403,-0.0289 c 3.2772,-1.63072 4.32159,-3.48843 4.39432,-7.81645 0.0766,-4.55888 -0.44616,-6.24813 -2.46833,-7.97613 -1.40454,-1.20021 -2.32934,-1.42216 -5.99106,-1.43784 -4.0631,-0.0174 -4.41801,0.089 -5.75492,1.72538 -0.78362,0.95916 -1.78041,2.92259 -2.21507,4.36318 -0.71419,2.367 -0.6862,2.95609 0.29064,6.11663 0.9552,3.09054 1.3737,3.65744 3.59776,4.87347 3.11729,1.7044 4.9575,1.73868 8.14666,0.15176 z m -6.07166,-3.66782 c -1.79209,-1.53976 -2.36642,-4.23015 -1.50889,-7.0683 1.0437,-3.45431 4.16295,-4.33724 6.45973,-1.82848 2.035,2.22282 1.91739,5.958 -0.26258,8.33917 -1.93509,2.11368 -2.76264,2.21211 -4.68826,0.55761 z m 19.24021,2.6945 c 0.27391,-0.78693 0.37192,-2.83625 0.21781,-4.55404 -0.2211,-2.46438 -0.0338,-3.5588 0.88791,-5.18778 1.17871,-2.08321 2.87014,-3.13895 3.90729,-2.4388 0.30969,0.20906 0.86107,-0.33428 1.22529,-1.20743 0.5442,-1.30462 0.50495,-1.75933 -0.22022,-2.55144 -0.74678,-0.8157 -1.19791,-0.85015 -2.93456,-0.22411 -1.6049,0.57855 -2.40916,0.57823 -3.69043,-0.001 -3.13596,-1.41884 -3.33975,-0.90388 -3.33975,8.43905 0,5.26752 0.22964,8.71796 0.6077,9.13091 0.91343,0.99773 2.77536,0.21431 3.33896,-1.40489 z m 19.05631,1.20976 c 1.8751,-0.81951 2.52293,-0.86396 3.58055,-0.2457 0.71019,0.41516 1.76575,0.6552 2.34569,0.53343 0.98565,-0.20696 1.0643,-1.04404 1.20568,-12.83084 0.12519,-10.43696 0.0107,-12.73687 -0.66473,-13.34913 -0.60743,-0.55065 -1.11159,-0.56688 -1.97268,-0.0635 -0.96329,0.56312 -1.15671,1.26628 -1.15671,4.20522 0,4.24563 -0.57998,5.08221 -2.9982,4.32466 -0.97015,-0.30391 -2.94925,-0.38082 -4.398,-0.1709 -2.2206,0.32176 -2.85855,0.73547 -4.06402,2.63552 -1.20487,1.89908 -1.42677,2.92316 -1.40979,6.50611 0.0231,4.87051 1.08179,6.88207 4.46338,8.48054 2.4692,1.16718 2.33863,1.16784 5.06883,-0.0254 z m -4.00331,-4.5737 c -1.89042,-2.21048 -2.10784,-4.67089 -0.65083,-7.36506 1.86074,-3.44071 5.39892,-2.94515 7.11109,0.996 0.82044,1.88852 0.86765,2.54203 0.29311,4.05713 -0.75496,1.99084 -3.02676,4.21317 -4.30696,4.21317 -0.45125,0 -1.55213,-0.85556 -2.44641,-1.90124 z m 28.27633,4.27811 c 2.98568,-1.248 3.13685,-1.42124 4.07105,-4.66542 0.82678,-2.87117 0.86891,-3.78823 0.28495,-6.20292 -0.37706,-1.55913 -1.43118,-3.65621 -2.34365,-4.66251 -1.55537,-1.71528 -1.92315,-1.82786 -5.92109,-1.81249 -4.1912,0.0161 -4.29456,0.0543 -6.16106,2.27902 -1.79457,2.13894 -1.89834,2.50666 -1.89834,6.72666 0,5.24499 0.67873,6.63528 4.09321,8.38434 3.01133,1.54255 4.08819,1.53617 7.87493,-0.0467 z m -5.04276,-3.02552 c -3.1248,-1.26907 -4.07484,-6.8058 -1.62666,-9.47993 2.26945,-2.47891 5.20218,-1.78651 6.45782,1.52464 1.66487,4.3903 -1.35697,9.36625 -4.83116,7.95529 z m 17.47121,3.35602 c 1.93683,-0.88395 2.31979,-0.88052 4.52756,0.0404 2.2923,0.95624 2.53593,0.94608 4.91838,-0.20506 3.16943,-1.53138 4.28052,-3.76005 4.22814,-8.48099 -0.0441,-3.97488 -0.26,-4.72752 -2.06434,-7.19639 -1.19294,-1.63231 -1.5196,-1.732 -5.88464,-1.79586 l -4.62158,-0.0676 -0.28022,-3.6534 c -0.24619,-3.20974 -0.46909,-3.76728 -1.8355,-4.59125 -1.38035,-0.83237 -1.61578,-0.83458 -2.09308,-0.0196 -0.82086,1.40158 -0.71365,25.29281 0.11758,26.20075 0.8173,0.89273 0.46588,0.91991 2.9877,-0.23103 z m 3.53081,-3.64895 c -2.15927,-1.27328 -3.00071,-4.45292 -1.92357,-7.26881 1.10761,-2.89555 3.24709,-4.01019 5.29299,-2.75757 1.987,1.21656 3.08291,3.83807 2.65239,6.34473 -0.59641,3.47254 -3.4342,5.20752 -6.02181,3.68165 z m 24.21638,3.615 c 1.80848,-0.7904 2.57875,-0.85445 3.68059,-0.30609 1.94735,0.96916 3.40267,0.86399 3.80275,-0.27482 0.1871,-0.53257 0.34018,-4.35549 0.34018,-8.49538 0,-8.64897 -0.34624,-9.47754 -3.48729,-8.34522 -1.288,0.46431 -2.44287,0.47657 -3.80468,0.0404 -2.75166,-0.88133 -6.15911,-0.14532 -7.98008,1.7237 -1.45028,1.48855 -1.54121,1.89345 -1.54121,6.86233 0,4.9621 0.0929,5.37749 1.54121,6.89028 1.36271,1.42339 3.56818,2.75323 4.75242,2.86559 0.22495,0.0213 1.4382,-0.41101 2.69611,-0.96078 z m -3.72159,-4.75479 c -2.25188,-2.45972 -2.40963,-4.26376 -0.6264,-7.16365 1.65475,-2.69096 3.77412,-3.04388 5.69292,-0.94799 2.72593,2.97752 2.3073,7.51557 -0.85827,9.30363 -2.08745,1.17909 -2.02003,1.19819 -4.20825,-1.19199 z M -93.360999,158.79539 c 0.15412,-12.62595 0.48426,-23.30061 0.73363,-23.72148 0.31874,-0.53792 2.33753,-0.7652 6.796794,-0.7652 5.210679,0 6.480733,0.18037 7.112561,1.01015 0.591515,0.77683 0.833899,4.70055 1.049396,16.98763 l 0.280221,15.97749 1.681327,3.64771 c 1.101698,2.39019 2.65742,4.51286 4.51268,6.15722 2.509258,2.22401 3.378391,2.60244 7.640012,3.32657 4.450889,0.7563 8.006694,0.68118 14.748528,-0.31155 5.17345,-0.76179 4.763758,-0.11741 4.763758,-7.49268 v -6.58665 l -5.923451,0.0175 -5.923452,0.0175 -1.608912,-2.14258 c -1.21269,-1.61494 -1.69889,-3.05028 -1.974277,-5.82837 -0.48226,-4.86504 -0.110914,-23.31473 0.482355,-23.96492 0.255431,-0.27994 3.155718,-0.64672 6.445084,-0.81506 l 5.980664,-0.30609 0.344806,-6.42775 c 0.189644,-3.53527 0.131474,-6.68413 -0.129266,-6.99747 -0.260741,-0.31334 -2.937893,-0.51446 -5.949228,-0.44693 -3.011335,0.0675 -5.853453,-0.14824 -6.315817,-0.47948 -0.670256,-0.48018 -0.85446,-2.22878 -0.908726,-8.62627 -0.03744,-4.4132 -0.299083,-8.27635 -0.58144,-8.58476 -0.659448,-0.72031 -7.341034,0.53123 -8.947237,1.67592 -0.654559,0.46648 -2.502416,1.01792 -4.106348,1.22541 -4.136838,0.53517 -4.509712,1.14831 -4.519862,7.43225 -0.0047,2.92201 -0.247491,5.72595 -0.539491,6.23099 -0.447867,0.77462 -3.010634,0.94288 -16.384349,1.07569 -8.719391,0.0866 -16.168691,0.28456 -16.553991,0.43992 -1.00886,0.40678 -1.02261,59.71661 -0.0141,60.8182 0.49524,0.54094 3.03204,0.70293 9.10719,0.58155 l 8.420731,-0.16824 z m 214.429079,22.54417 c 0.2235,-0.395 0.43713,-2.85694 0.47474,-5.47097 0.0787,-5.46906 0.8224,-6.856 4.13534,-7.7118 1.6787,-0.43364 2.05525,-0.8071 2.05525,-2.03836 0,-1.49604 -0.0403,-1.50746 -5.3242,-1.50746 h -5.3242 l -0.15732,7.8728 c -0.10555,5.28222 0.0553,8.15269 0.48896,8.72338 0.78736,1.03627 3.09272,1.11987 3.65143,0.13241 z M 89.379971,159.99817 c 1.310616,-0.76615 1.421423,-3.1957 0.196399,-4.30622 -1.833732,-1.66231 -4.030394,1.97459 -2.449411,4.05537 0.801595,1.05501 0.865267,1.0621 2.253012,0.25085 z m 86.267719,-1.90681 c 2.12812,-3.20892 2.11249,-3.70445 -0.10934,-3.4669 -1.33913,0.14318 -2.06421,0.69882 -2.85885,2.19082 -2.20298,4.13624 0.34492,5.23163 2.96819,1.27608 z M -7.0624404,138.16106 c 0.148882,-0.14332 0.194689,-5.5452 0.101792,-12.00419 -0.14555,-10.11996 -0.298641,-11.85259 -1.10729,-12.53192 -0.516114,-0.43357 -1.444617,-0.70904 -2.0633396,-0.61216 -1.078568,0.16888 -1.13122,0.69176 -1.276984,12.68139 -0.116205,9.55838 0.01477,12.61785 0.555786,12.98308 0.649909,0.43874 3.1520326,0.098 3.7900356,-0.5162 z m 18.7537624,0.4455 1.4435,-0.59947 -0.212506,-7.11346 c -0.209445,-7.01101 -0.237578,-7.14086 -1.953201,-9.01482 l -1.7406948,-1.90135 -3.2559281,0.73457 c -2.5389376,0.57281 -3.6510925,0.57164 -5.05040847,-0.005 -1.209821,-0.4988 -1.97916203,-0.53813 -2.36131903,-0.1207 -0.316934,0.34619 -0.613748,4.3848 -0.673238,9.16045 l -0.106399,8.54129 h 2.20662603 2.20662697 l 0.132064,-4.89733 c 0.189682,-7.03398 0.666012,-8.52738 2.7933608,-8.75778 2.7510348,-0.29796 3.519659,1.49949 3.519659,8.23081 0,3.9299 0.2114045,5.72153 0.7005526,5.93713 0.385304,0.16982 0.747184,0.33051 0.804179,0.35709 0.05699,0.0266 0.753201,-0.22143 1.547126,-0.55114 z m 16.542641,-0.18142 c 0.759072,-0.41956 1.718798,-1.73478 2.132724,-2.92271 1.406498,-4.03651 -0.362284,-6.1965 -6.490092,-7.92554 -2.022267,-0.57061 -2.388223,-0.90125 -2.241768,-2.02544 0.140105,-1.07545 0.605324,-1.38213 2.331661,-1.53709 1.4376,-0.12903 2.505054,0.15085 3.201668,0.83946 1.260153,1.24567 2.768108,0.76475 2.768108,-0.88282 0,-1.72677 -3.300475,-3.74215 -6.128297,-3.74215 -1.674957,0 -2.907658,0.46201 -4.277275,1.60308 -1.655521,1.37927 -1.920842,1.95616 -1.900433,4.13213 0.02076,2.2131 0.270665,2.70112 2.000409,3.90642 1.087178,0.75756 2.811016,1.37738 3.83075,1.37738 2.055271,0 3.306389,1.19537 3.012637,2.87839 -0.256524,1.46972 -2.228099,1.69849 -5.177532,0.60077 -4.381827,-1.63084 -5.050453,1.06229 -0.845804,3.40677 2.236609,1.24711 5.811944,1.38095 7.783244,0.29135 z m 16.873226,-0.18867 c 0.966632,-1.27222 0.05161,-2.93197 -1.777551,-3.22428 -1.877655,-0.30006 -2.166165,-1.05303 -2.17595,-5.67892 -0.0088,-4.17938 0.408963,-5.10026 2.506972,-5.52561 1.894255,-0.38405 1.728632,-2.32844 -0.268472,-3.15183 -1.231196,-0.50762 -1.863282,-1.23866 -2.076138,-2.40117 -0.621239,-3.39287 -2.99818,-3.64505 -4.025197,-0.42704 -0.313459,0.98218 -1.213778,2.10621 -2.000709,2.49785 -2.030578,1.01058 -1.898805,3.115 0.250541,4.00117 l 1.681327,0.6932 v 5.5905 c 0,5.11938 0.115928,5.71714 1.37563,7.0931 1.638192,1.78939 5.325552,2.09132 6.509547,0.53303 z m 22.975982,0.33586 c 1.552929,-0.90781 1.337691,-2.25242 -0.529371,-3.30702 -1.97384,-1.11492 -2.312092,-2.00528 -2.301102,-6.05706 0.0096,-3.53061 0.272855,-4.18926 2.093076,-5.23629 1.638313,-0.94239 1.601331,-2.24697 -0.09818,-3.4633 -0.747545,-0.53502 -1.617122,-1.78101 -1.932394,-2.76887 -0.466366,-1.46129 -0.894318,-1.7961 -2.295717,-1.7961 -1.328258,0 -1.880085,0.37864 -2.411033,1.65435 -0.378696,0.9099 -1.265762,2.28543 -1.971257,3.05674 -1.041953,1.13916 -1.169746,1.63296 -0.680835,2.63081 0.331037,0.67564 0.971311,1.22843 1.422831,1.22843 0.938075,0 1.016069,0.56981 0.861963,6.29728 -0.107425,3.99255 -0.03604,4.23743 1.8291,6.27471 2.018521,2.20482 3.962016,2.68523 6.012915,1.48632 z m 12.192517,0.0691 c 1.331894,-0.28118 3.317036,-0.29066 4.411428,-0.0211 3.557195,0.87632 3.581293,0.81181 3.409622,-9.12763 l -0.154717,-8.95784 -1.470757,-0.18628 c -2.63313,-0.33349 -3.293001,1.1601 -3.293001,7.45357 0,6.13554 -0.39299,7.11863 -2.845675,7.11863 -2.387318,0 -2.916935,-1.32118 -3.040398,-7.58459 -0.06186,-3.13833 -0.290881,-6.02136 -0.50893,-6.40674 -0.461929,-0.8164 -2.370767,-0.93954 -2.800161,-0.18064 -0.161833,0.28602 -0.327986,3.87471 -0.36923,7.97487 -0.07853,7.80679 0.191721,8.86034 2.539411,9.89978 1.422016,0.6296 1.229068,0.62876 4.122408,0.0179 z m 21.936772,-0.61725 c 0.43709,-0.89209 0.36342,-1.41736 -0.30053,-2.14258 -0.48377,-0.52842 -1.09575,-0.96077 -1.35996,-0.96077 -1.44035,0 -2.24177,-2.10154 -2.24177,-5.87852 0,-3.23204 0.179196,-4.01506 0.980773,-4.28561 3.290767,-1.11073 3.921547,-3.32413 1.287007,-4.5161 -0.941789,-0.42611 -2.029867,-1.49837 -2.417947,-2.3828 -0.931744,-2.12344 -3.958339,-2.33451 -4.224569,-0.29461 -0.09428,0.72239 -0.661729,1.79812 -1.260995,2.3905 -1.413735,1.39749 -1.397756,3.7249 0.03131,4.5603 0.957392,0.55967 1.120884,1.28177 1.120884,4.95064 0,4.79803 1.594134,8.8805 3.642874,9.32917 2.769243,0.60646 4.180933,0.37739 4.742923,-0.76962 z m 16.54643,0.30642 c 2.12962,-0.97193 5.30327,-5.84748 5.321,-8.17441 0.0181,-2.37035 -2.62074,-7.26352 -4.65918,-8.63962 -2.73242,-1.84459 -6.51459,-1.72788 -9.30207,0.28703 -4.33133,3.13088 -5.05563,10.83182 -1.40973,14.98855 2.10634,2.40145 6.63879,3.09528 10.04998,1.53845 z m -6.99808,-4.6341 c -1.77178,-1.9353 -1.52358,-5.77599 0.51733,-8.00526 2.07374,-2.26514 3.06984,-2.25052 5.20007,0.0763 1.51975,1.66001 1.67708,2.16621 1.42687,4.59091 -0.15466,1.49886 -0.59528,3.13856 -0.97915,3.64378 -1.03832,1.36656 -4.80513,1.17975 -6.16512,-0.30575 z m 33.86091,5.13792 c 0.7572,-0.31738 0.88775,-1.8129 0.89508,-10.25379 0.005,-5.43522 0.22434,-10.25411 0.48805,-10.70865 0.27296,-0.47049 1.41581,-0.81537 2.65351,-0.80077 3.24998,0.0384 4.13561,-0.40858 4.13561,-2.08706 0,-0.81904 -0.18915,-1.52556 -0.42034,-1.57004 -1.94155,-0.37355 -16.39043,-0.24792 -17.3737,0.15106 -2.84967,1.15632 -0.76253,3.60282 3.07361,3.60282 1.19159,0 2.46916,0.33057 2.83905,0.7346 0.46782,0.51099 0.67253,3.75825 0.67253,10.66804 0,8.94565 0.0975,9.96127 0.98078,10.21339 0.53942,0.15398 1.02319,0.31191 1.07504,0.35097 0.0519,0.0391 0.4932,-0.0962 0.98078,-0.30057 z m 20.99095,-0.5063 c 4.28823,-2.42219 3.51009,-4.64385 -1.22141,-3.48725 -3.57872,0.87479 -5.99287,0.18197 -5.99287,-1.71985 0,-1.90112 1.9983,-2.68757 5.74266,-2.26008 5.39814,0.61629 6.58617,-0.9369 4.36093,-5.7013 -1.65314,-3.53949 -3.58296,-4.93082 -6.83921,-4.93082 -6.4807,0 -10.35404,7.92659 -7.0297,14.38593 2.10613,4.09231 7.23673,5.82751 10.9796,3.71337 z m -6.00232,-10.67885 c -0.41228,-0.28544 -0.66447,-1.17652 -0.56044,-1.98017 0.16237,-1.25439 0.49777,-1.46119 2.36983,-1.46119 2.56891,0 3.81874,1.43452 2.62206,3.00952 -0.79186,1.04218 -3.20961,1.27779 -4.43145,0.43184 z m 28.38762,8.79901 c 1.02173,-1.21444 1.75888,-2.53701 1.6381,-2.93905 -0.40767,-1.35709 -3.25076,-1.21439 -4.66224,0.23401 -1.77,1.8163 -4.59412,1.73929 -5.95258,-0.16231 -2.08868,-2.9238 -1.86413,-5.33801 0.78541,-8.44444 1.40474,-1.64697 3.15777,-1.55814 4.90184,0.24838 1.05561,1.09341 1.83668,1.39632 2.97299,1.15297 2.20512,-0.47226 1.95865,-2.17201 -0.6411,-4.42107 -5.56308,-4.8127 -13.51007,-0.37143 -13.51007,7.55026 0,3.16829 0.89695,5.49313 2.88907,7.48832 1.71395,1.71658 2.90594,2.02897 6.63845,1.7398 2.69027,-0.20842 3.31878,-0.51972 4.94013,-2.44687 z m 19.75617,2.12402 c 0.97485,-0.56988 1.08404,-1.33964 1.08404,-7.64243 0,-6.86505 -0.0332,-7.04936 -1.62142,-8.99088 l -1.62141,-1.98216 -3.30158,0.74487 c -2.58363,0.58289 -3.69182,0.58398 -5.09607,0.005 -1.29918,-0.53564 -1.96372,-0.55499 -2.40764,-0.0701 -0.37704,0.41183 -0.64234,3.93943 -0.68893,9.16044 l -0.0758,8.4907 h 2.22231 2.22232 l 0.1602,-5.37433 c 0.20597,-6.9097 0.70963,-8.39943 2.83973,-8.39943 2.59703,0 3.15525,1.34472 3.24774,7.82359 0.0589,4.12739 0.30141,5.95186 0.84066,6.32511 0.95648,0.66205 0.90503,0.66416 2.19581,-0.0904 z m 10.61155,-0.62274 c 0.15412,-0.25067 0.20354,-4.20113 0.10982,-8.77881 -0.16889,-8.24949 -0.1825,-8.32636 -1.53996,-8.6985 -2.90051,-0.79517 -3.0534,-0.35468 -3.0534,8.79743 0,5.66966 0.21759,8.70479 0.65858,9.18648 0.65954,0.72041 3.28428,0.37277 3.82496,-0.5066 z m 18.9131,-0.71549 c 2.00862,-2.05163 2.58249,-3.45658 1.82117,-4.45857 -0.74086,-0.97507 -2.01718,-0.61398 -3.71465,1.05095 -0.87843,0.86159 -1.84293,1.12107 -3.64288,0.98007 -2.15154,-0.16854 -2.5735,-0.45133 -3.48308,-2.33436 -1.01414,-2.09948 -1.01188,-2.20069 0.11266,-5.03119 1.40051,-3.52511 3.27029,-4.35925 5.59102,-2.49425 0.82288,0.66128 2.17424,1.38641 3.00301,1.61138 3.03782,0.82464 2.66276,-2.41735 -0.55605,-4.80646 -4.0987,-3.04219 -9.89731,-1.40414 -12.19269,3.4443 -1.72993,3.65406 -0.58008,9.98411 2.21132,12.17356 2.84809,2.23391 8.6008,2.16211 10.85017,-0.13543 z m 18.18017,1.33844 c 6.32318,-1.9183 7.32041,-12.58917 1.56528,-16.74924 -6.05563,-4.37729 -13.43865,0.19105 -13.43865,8.31534 0,2.93314 0.23906,3.64258 1.97315,5.85545 1.08524,1.38487 2.53538,2.63658 3.22254,2.78158 2.33944,0.49364 4.60846,0.42462 6.67768,-0.20313 z m -6.15687,-4.38628 c -0.36989,-0.40403 -0.67253,-2.28433 -0.67253,-4.17846 0,-2.80831 0.23938,-3.68949 1.29712,-4.7749 1.79182,-1.83869 3.38953,-1.66556 5.09815,0.55243 1.68566,2.18818 1.94301,5.64705 0.57848,7.77499 -0.66848,1.04247 -1.42841,1.36054 -3.25056,1.36054 -1.30797,0 -2.68076,-0.33057 -3.05066,-0.7346 z M 53.891696,129.9423 c 0.149768,-9.14707 -0.181921,-10.21787 -2.931575,-9.46406 l -1.408383,0.38611 v 8.90171 8.90171 l 2.101657,-0.18999 2.101658,-0.19 z m 0.03748,-15.02849 c 0.262086,-2.01088 -1.801023,-3.02344 -3.574355,-1.75427 -0.749938,0.53673 -1.363523,1.1899 -1.363523,1.45149 0,1.09591 1.509665,1.98778 3.079674,1.81938 1.239586,-0.13296 1.730041,-0.53325 1.858204,-1.5166 z m 111.457844,0.311 c 1.73887,-1.78436 1.71441,-3.56629 -0.0489,-3.56629 -1.36069,0 -3.92765,3.38388 -3.34634,4.41128 0.5053,0.89304 2.08458,0.5 3.39529,-0.84499 z m 54.03198,0.34263 c 0.64431,-0.848 0.5615,-1.15603 -0.58297,-2.1683 -1.51175,-1.33711 -2.72898,-1.2805 -3.56267,0.16571 -1.43173,2.48366 2.38081,4.32534 4.14564,2.00259 z m -314.100217,-2.75795 c 3.72894,-3.80134 4.52687,-9.14962 2.09363,-14.032896 -1.16816,-2.34438 -2.0201,-3.20611 -4.1671,-4.21497 -1.48431,-0.69746 -3.282483,-1.2583 -3.995953,-1.24629 -2.41997,0.0407 -6.49688,2.64826 -8.1014,5.18159 -1.3206,2.085056 -1.53268,2.986386 -1.4282,6.069766 0.10689,3.15465 0.38396,3.96936 2.15096,6.32477 2.58768,3.44938 3.5593,3.8755 8.20943,3.60042 3.063423,-0.18122 4.089203,-0.51065 5.238633,-1.68239 z"
       id="path1" /></g></svg>
